# xmcd
#
# Track frame offsets:
# 150
# 7698
# 113973
# 122544
# 126609
# 136867
# 141036
# 149776
# 156139
# 162921
# 167482
# 176075
# 180618
# 189156
# 194342
# 200856
# 205854
# 213230
#
# Disc length: 2908 seconds
#
#
# Revision: 0
# Processed by: cddbd v1.5.2PL0 Copyright (c) Steve Scherf et al.
# Submitted via: FreeRIP 2.945 
#
DISCID=080b5a12
DTITLE=João Chagas Leite - Jeito Brasil
DYEAR=2004
DGENRE=Gaucho
TTITLE0=01
TTITLE1=02
TTITLE2=Cria Enjeitada
TTITLE3=Reculutando Lembranças
TTITLE4=Penas
TTITLE5=Remembranças
TTITLE6=Campo, Pampa e Querencia
TTITLE7=Seiva de Vida
TTITLE8=Ave Sonora
TTITLE9=Partida
TTITLE10=Madrugador
TTITLE11=Mundo Louco
TTITLE12=Mate do Norte
TTITLE13=Trem da Querencia
TTITLE14=Na Moldura da Janela
TTITLE15=Ciranda
TTITLE16=Por Quem Cantam os Cardeais
TTITLE17=Desassossegos
EXTD=
EXTT0=
EXTT1=
EXTT2=
EXTT3=
EXTT4=
EXTT5=
EXTT6=
EXTT7=
EXTT8=
EXTT9=
EXTT10=
EXTT11=
EXTT12=
EXTT13=
EXTT14=
EXTT15=
EXTT16=
EXTT17=
PLAYORDER=
